<svg width="200" height="118" viewBox="0 0 200 118" fill="none" xmlns="http://www.w3.org/2000/svg">
<path d="M91.9781 94.4217C91.9781 94.4217 123.025 91.0163 125.767 90.72C128.509 90.4201 147.904 78.4409 147.904 78.4409L167.565 95.7714C167.565 95.7714 134.392 105.914 127.43 106.533C115.927 107.553 93.6456 100.252 93.6456 100.252C92.2297 102.216 89.2361 102.498 86.4509 101.061C83.6658 99.6267 84.3342 100.351 82.3433 99.3889C80.3523 98.4233 82.1061 95.6324 82.1061 95.6324C86.7384 89.3301 91.9781 94.4217 91.9781 94.4217Z" fill="#E8945B"/>
<path d="M163.149 54.4605C163.149 54.4605 146.463 62.8185 136.817 59.7204C136.817 59.7204 139.189 56.6333 143.329 54.3179C143.092 52.8877 142.905 51.5819 142.754 50.4187C142.219 46.2123 142.201 43.8164 142.201 43.8164L152.429 35.4255L154.721 33.5454C154.657 35.5352 154.775 37.3824 155.034 39.0796C155.052 39.215 155.074 39.3466 155.095 39.4783C156.759 49.5774 163.149 54.4605 163.149 54.4605Z" fill="#FFB27D"/>
<path d="M160.31 50.6278C159.634 50.134 155.48 52.2006 151.667 54.1172C148.281 55.8181 144.749 55.8656 141.525 55.2621C141.274 55.2146 141.015 55.2914 140.835 55.4743L137.953 58.3931C133.896 62.2264 129.454 67.4387 127.524 75.3503C125.878 82.0842 124.915 94.2278 124.383 106.81C124.239 110.23 124.11 113.665 124.02 117.048H171.493C171.472 112.644 171.565 107.897 171.853 102.926C171.971 100.801 172.047 98.6866 172.079 96.598C172.086 95.9543 172.094 95.3105 172.097 94.674C172.169 74.4432 168.227 56.6484 160.31 50.6278Z" fill="#739AF0"/>
<path d="M152.58 117.048H171.493C171.472 112.644 171.565 107.897 171.853 102.926C171.971 100.801 172.047 98.6866 172.079 96.598L159.436 76.0928C159.436 76.0891 152.835 93.6682 152.58 117.048Z" fill="#4A82D3"/>
<path d="M155.178 39.3279C155.178 39.3279 155.149 39.3828 155.095 39.4815C154.448 40.6593 150.042 48.2455 142.758 50.4219C142.222 46.2155 142.204 43.8196 142.204 43.8196L152.432 35.4287C153.78 37.0381 154.7 38.5159 155.038 39.0828C155.127 39.2401 155.178 39.3279 155.178 39.3279Z" fill="#E8945B"/>
<path d="M139.25 43.5826C139.25 43.5826 155.181 46.2747 156.676 36.1537C158.171 26.0328 161.233 19.5623 151.128 17.4152C141.022 15.2681 138.47 18.8271 137.162 22.0824C135.854 25.3378 135.146 42.6206 139.25 43.5826Z" fill="#FFB27D"/>
<path d="M162.387 15.7542C162.534 15.1287 162.876 14.3679 163.691 13.9765C163.691 13.9765 162.549 14.1009 161.934 14.8544C161.833 13.8887 161.611 12.5281 161.107 11.6027C161.107 11.6027 161.133 12.8938 161.003 13.9802C154.1 6.88422 137.996 14.6642 134.69 16.215C128.879 18.94 132.138 23.9986 135.854 25.2386C139.57 26.4786 148.824 22.4953 148.95 25.1069C149.079 27.7149 150.808 30.5862 151.771 30.652C152.73 30.7178 153.438 28.6293 154.653 30.0009C155.871 31.3726 153.755 33.5452 153.755 33.5452C152.49 35.8972 155.092 39.4817 155.092 39.4817C155.092 39.4817 155.932 39.9828 157.41 38.2856C158.84 36.6433 169.226 26.1091 162.387 15.7542Z" fill="#2C3A64"/>
<path d="M141.597 77.7561C146.319 78.6449 155.487 80.7957 161.111 84.8484C162.344 85.7372 164.069 85.1447 164.525 83.6816C166.15 78.4401 168.356 66.4063 165.912 57.7266C165.682 56.911 165.028 56.8598 164.212 56.6878C161.125 56.0295 153.668 55.5613 149.855 59.4421C146.463 62.8913 142.24 70.353 140.048 74.4386C139.315 75.7919 140.102 77.4745 141.597 77.7561Z" fill="#739AF0"/>
<path d="M141.597 77.7603C141.299 77.7018 141.026 77.5884 140.788 77.4312C138.902 87.9874 139.042 103.866 135.394 104.115C130.356 104.462 105.606 101.77 105.606 101.77C104.887 100.852 101.268 96.3454 98.5547 94.9335C95.5287 93.357 91.1515 94.8457 90.3645 96.1881C89.5775 97.5305 88.3915 100.186 89.8506 101.671C91.3097 103.156 103.27 109.33 103.27 109.33C108.682 112.966 114.594 115.41 120.236 117.048H147.843C154.538 106.861 158.969 94.9994 161.79 85.1819C161.557 85.1124 161.327 85.0064 161.111 84.8491C155.487 80.7999 146.316 78.6492 141.597 77.7603Z" fill="#FFB27D"/>
<path d="M110.159 107.888H64.3472C62.8446 107.888 62.1845 109.382 62.8717 111.227C63.559 113.072 65.3334 114.566 66.8321 114.566H112.644C114.147 114.566 114.807 113.072 114.12 111.227C113.432 109.386 111.662 107.888 110.159 107.888Z" fill="#963333"/>
<path d="M73.2269 74.2998L35.984 74.363C33.9184 74.367 33.0098 76.4299 33.9572 78.967L45.4772 109.823C46.4246 112.364 48.8707 114.419 50.9363 114.416L88.1792 114.352C90.2448 114.348 91.1533 112.285 90.206 109.748L78.686 78.8959C77.7386 76.3508 75.2964 74.2959 73.2269 74.2998Z" fill="#B64C41"/>
<path d="M59.4588 92.8384C59.354 93.9054 60.1616 95.2689 61.2604 95.8814C62.3592 96.494 63.3337 96.1264 63.4347 95.0594C63.5395 93.9924 62.7319 92.629 61.6331 92.0164C60.5343 91.4039 59.5636 91.7675 59.4588 92.8384Z" fill="#ED6058"/>
<path d="M61.7805 62.6572C78.7801 62.6572 92.5609 48.6309 92.5609 31.3286C92.5609 14.0263 78.7801 0 61.7805 0C44.7809 0 31 14.0263 31 31.3286C31 48.6309 44.7809 62.6572 61.7805 62.6572Z" fill="#E9F3FE"/>
<path d="M67.0274 60.3672H56.5336L61.7805 69.6143L67.0274 60.3672Z" fill="#E9F3FE"/>
<path d="M65.0579 50.0554C65.3903 50.8624 65.0284 51.7967 64.2541 52.1432C63.4797 52.4897 62.5833 52.1125 62.2509 51.3054C61.9184 50.4984 62.2803 49.5642 63.0547 49.2177C63.829 48.8711 64.7254 49.2484 65.0579 50.0554Z" fill="#D86713"/>
<path d="M65.3272 50.0552C65.6596 50.8622 65.2977 51.7963 64.5234 52.1427C63.749 52.4892 62.8527 52.112 62.5202 51.3051C62.1877 50.4982 62.5497 49.5641 63.324 49.2176C64.0983 48.8712 64.9947 49.2483 65.3272 50.0552Z" fill="#F1A34F"/>
<path d="M56.355 50.0554C56.6875 50.8624 56.3256 51.7967 55.5512 52.1432C54.7769 52.4897 53.8805 52.1125 53.5481 51.3054C53.2156 50.4984 53.5775 49.5642 54.3519 49.2177C55.1262 48.8711 56.0226 49.2484 56.355 50.0554Z" fill="#D86713"/>
<path d="M56.6244 50.0552C56.9568 50.8622 56.5949 51.7963 55.8206 52.1427C55.0463 52.4892 54.1499 52.112 53.8174 51.3051C53.485 50.4982 53.8469 49.5641 54.6212 49.2176C55.3956 48.8712 56.2919 49.2483 56.6244 50.0552Z" fill="#F1A34F"/>
<path d="M66.2572 23.71L65.6133 23.574C66.4845 19.0962 68.1215 10.3115 68.0626 9.11421C68.0247 8.35986 67.8059 7.81603 67.4061 7.50025C66.7664 6.98712 65.8406 7.18448 65.8322 7.18887L65.7985 7.19325L63.1725 7.48271C60.0626 7.56604 59.8185 10.2457 59.8101 10.3598L59.8059 10.3948L57.6133 22.9293L56.9652 22.8065L59.1536 10.2896C59.1662 10.1492 59.2588 9.37297 59.7469 8.58792C60.2351 7.80287 61.2198 6.85555 63.1431 6.80292L65.7143 6.52223C65.8827 6.48715 66.9684 6.29856 67.8017 6.96081C68.3656 7.40815 68.6728 8.12303 68.7233 9.08789C68.7948 10.6624 66.3582 23.1793 66.2572 23.71Z" fill="#D86713"/>
<path d="M71.1894 22.9513L64.5444 21.5654L63.2441 48.7265L50.9515 49.858L53.123 50.6693C53.3419 50.7527 53.5733 50.7921 53.809 50.7878L65.5165 50.665C65.7185 50.6693 65.9163 50.665 66.1057 50.6606H66.1268C70.7054 50.4983 70.9285 47.8975 70.9285 47.8975C70.9285 47.8975 72.4098 30.4291 72.7507 27.3152C73.1294 23.7715 71.1894 22.9513 71.1894 22.9513Z" fill="#D86713"/>
<path d="M68.2309 26.3727L66.4424 45.9372C66.3708 46.731 66.1015 47.4546 65.6849 48.0642C64.9189 49.1957 63.6565 49.9281 62.2425 49.9369L56.0815 49.9764H55.93L52.0709 50.0027C51.6838 50.0071 51.3092 49.9544 50.9515 49.8536C50.8674 49.8316 50.7874 49.8053 50.7032 49.779C49.3692 49.3185 48.3382 48.1826 47.9594 46.7924C47.7995 46.2003 47.7532 45.56 47.85 44.9021L50.6485 26.1841C50.9473 24.1887 52.5086 22.6581 54.436 22.4651L55.526 22.3555L55.7869 22.3291L56.0057 22.3072L59.6459 21.9432L60.092 21.8993L63.6017 21.5485C64.153 21.4959 64.6875 21.5529 65.1841 21.702C65.2177 21.7108 65.2472 21.7195 65.2809 21.7327L65.4829 21.8029C67.2167 22.4783 68.4203 24.3027 68.2309 26.3727Z" fill="#F1A34F"/>
<path opacity="0.4" d="M65.6893 48.0679C64.9234 49.1992 63.6609 49.9315 62.2469 49.9403L56.0859 49.9798H55.9344L52.0753 50.0061C51.6882 50.0105 51.3136 49.9579 50.9559 49.857C50.8718 49.8351 50.7918 49.8088 50.7076 49.7825C49.3736 49.322 47.8334 47.6337 47.8081 45.849C47.8081 45.849 60.8455 45.6692 63.5683 46.1077C64.9781 46.3357 65.3947 47.3575 65.6893 48.0679Z" fill="#D86713"/>
<path d="M56.0057 22.3105C55.9805 22.3281 53.1188 24.1438 52.7443 25.7358C52.3571 27.3761 49.7774 46.4761 49.7521 46.6691C49.7521 46.6866 49.6806 48.5286 51.1493 49.9058L50.9515 49.8575C50.8673 49.8356 50.7874 49.8093 50.7032 49.783C49.3229 48.3576 49.5081 46.7085 49.5207 46.6384C49.6259 45.8489 52.1298 27.3279 52.517 25.6788C52.8579 24.2315 54.8737 22.793 55.526 22.3544L55.7869 22.3281L56.0057 22.3105Z" fill="#D86713"/>
<path d="M60.092 21.9028C59.6796 22.1923 58.1099 23.4378 57.7774 25.7316C57.3861 28.4245 55.85 47.9762 55.8332 48.1691V48.1823L55.829 48.1955C55.8248 48.2042 55.6059 49.2612 56.2372 49.9761H56.0815H55.93C55.324 49.2086 55.5639 48.2656 55.6017 48.1297C55.648 47.5244 57.1546 28.3587 57.546 25.6877C57.8364 23.7098 59.0021 22.4818 59.6459 21.9379L60.092 21.9028Z" fill="#D86713"/>
<path d="M65.4829 21.8064C65.4702 21.8152 64.8769 22.1617 64.3635 22.7669C63.8542 23.3721 63.2945 24.3063 63.1052 25.6176C62.7138 28.3061 61.4976 47.7919 61.485 47.9893V48.0068L61.4808 48.02C61.4765 48.0287 61.426 49.2217 62.0573 49.9409L61.6701 49.9453C61.1862 49.2918 61.2156 48.1077 61.2577 47.963C61.2956 47.3402 62.4908 28.2535 62.8821 25.5825C63.2482 23.0739 64.8474 21.9205 65.1883 21.7012C65.222 21.7099 65.2514 21.7187 65.2851 21.7319L65.4829 21.8064Z" fill="#D86713"/>
<path d="M196.409 117.048H3.59066C1.60946 117.048 0 116.364 0 115.521C0 114.679 1.60946 113.995 3.59066 113.995H196.409C198.391 113.995 200 114.679 200 115.521C200 116.364 198.391 117.048 196.409 117.048Z" fill="#2C3A64"/>
</svg>
